<svg xmlns="http://www.w3.org/2000/svg" viewBox="0 0 26 32.3" xmlns:v="https://vecta.io/nano"><style><![CDATA[.B{fill:#f4ead3}.C{fill:#ebe3cd}.D{fill:#b1753b}.E{fill:#cbaa88}.F{fill:#e0cda4}.G{fill:#e7daba}]]></style><defs><symbol id="A" viewBox="0 0 4.4 4"><g class="B"><path d="M2.3,0a.8.8,0,0,0-.6.9h0A.7.7,0,0,0,.8.7a.6.6,0,0,0-.2.9H.7c-.9.2-1.1,1.5.4,1.6a.5.5,0,0,0,.2.6h.1a.7.7,0,0,0,.9-.2V3.5h0a1.4,1.4,0,0,0,1.6.1A1,1,0,0,0,4,2.1H3.8c1.1-.2.5-1.4-.4-.9A1,1,0,0,0,2.3,0Z"/><path d="M2.3,0a.8.8,0,0,0-.6.9h0A.7.7,0,0,0,.8.7a.6.6,0,0,0-.2.9H.7c-.9.2-1.1,1.5.4,1.6a.5.5,0,0,0,.2.6h.1a.7.7,0,0,0,.9-.2V3.5h0a1.4,1.4,0,0,0,1.6.1A1,1,0,0,0,4,2.1H3.8c1.1-.2.5-1.4-.4-.9A1,1,0,0,0,2.3,0Z"/><path d="M2.3,0a.8.8,0,0,0-.6.9h0A.7.7,0,0,0,.8.7a.6.6,0,0,0-.2.9H.7c-.9.2-1.1,1.5.4,1.6a.5.5,0,0,0,.2.6h.1a.7.7,0,0,0,.9-.2V3.5h0a1.4,1.4,0,0,0,1.6.1A1,1,0,0,0,4,2.1H3.8c1.1-.2.5-1.4-.4-.9A1,1,0,0,0,2.3,0Z"/><path d="M1.1 1.7C.4 1.8.2 3 1.4 3s0 .3.2.5h.1a.6.6 0 0 0 .7-.1v-.2h0a1.2 1.2 0 0 0 1.4 0 .7.7 0 0 0 0-1.1c0-.1-.1-.1-.2-.2s.5-1.1-.3-.7.1-1-.9-.9a.7.7 0 0 0-.5.7h-.2a.6.6 0 0 0-.7.2h0a.5.5 0 0 0 .1.5z"/></g><path d="M1.1 1.7C.4 1.8.2 3 1.4 3s0 .3.2.5h.1a.6.6 0 0 0 .7-.1v-.2h0a1.2 1.2 0 0 0 1.4 0 .7.7 0 0 0 0-1.1c0-.1-.1-.1-.2-.2s.5-1.1-.3-.7.1-1-.9-.9a.7.7 0 0 0-.5.7h-.2a.6.6 0 0 0-.7.2h0a.5.5 0 0 0 .1.5z" class="G"/><g class="B"><path d="M1.3 2.3c.3.5.7.1.7-.2s-1.2-.5-.7.2z"/><path d="M2.4 2.2c.7-.3.3-.9-.2-1s-1.1 1.4.2 1zm.7.5c-.3.2 0 .4.2.4s.3-.7-.2-.4zm-1.5.5c.2.3.5.2.6-.1s-.7-.5-.6.1zm1.9-.8c.1.2.2 0 .2-.1s-.4-.1-.2.1zM2.5.6c-.2.4.3.5.5.4s-.2-1-.5-.4z"/></g></symbol><symbol id="B" viewBox="0 0 3.5 3.5"><g class="B"><path d="M1,.9S-.1.8,0,1.7a.7.7,0,0,0,.8.5.5.5,0,0,0-.1.7.5.5,0,0,0,.8.1h0c.2.7,1.4.8,1.4-.4a.5.5,0,0,0,.6-.2h0a.6.6,0,0,0-.2-.7H3.2A.9.9,0,0,0,1.8.5C1.5-.4.5.1,1,.9Z"/><path d="M.2 1.6C.1.8 1 .9 1 .9h0C.9.9-.1.8 0 1.7s.5.5.8.5V2c-.2.1-.6 0-.6-.4z"/></g><path d="M1 .8h0zM.8 2.2h0z" class="C"/><path d="M1.5 2.7c.1.6 1.2.7 1.2-.3a.4.4 0 0 0 .5-.2h0c.1-.2 0-.4-.2-.6h-.1c.2-.4.2-.9-.2-1.1a.7.7 0 0 0-1 .1C1.5-.1.7.2 1 .8h0s-.9.1-.8.9.4.4.7.3v.2H.7c0 .2.1.5.3.5s.4.2.5 0z" class="B"/><path d="M1.5 2.7c.1.6 1.2.7 1.2-.3a.4.4 0 0 0 .5-.2h0c.1-.2 0-.4-.2-.6h-.1c.2-.4.2-.9-.2-1.1a.7.7 0 0 0-1 .1C1.5-.1.7.2 1 .8h0s-.9.1-.8.9.4.4.7.3v.2H.7c0 .2.1.5.3.5s.4.2.5 0z" class="C"/><path d="M1.5 2.7c.1.6 1.2.7 1.2-.3a.4.4 0 0 0 .5-.2h0c.1-.2 0-.4-.2-.6h-.1c.2-.4.2-.9-.2-1.1a.7.7 0 0 0-1 .1C1.5-.1.7.2 1 .8h0s-.9.1-.8.9.4.4.7.3v.2H.7c0 .2.1.5.3.5s.4.2.5 0z" class="F"/><g class="B"><path d="M1.9 2.9c.4.2.6-.2.5-.5s-1.1.1-.5.5zm.4-1.8c.4.3.5-.1.4-.4s-1-.1-.4.4zm-1 1.5c.1-.1-.1-.2-.2-.2s-.1.6.2.2z"/><path d="M.7 1.8c.5.2.6-.3.4-.6s-1.2.4-.4.6z"/></g><g class="D"><path d="M2,1.6c.6-.6.8.1.8.1s-.2.6-.8,0Z"/><path d="M1.6 2.4s-.4-.5.4-.7-.4.7-.4.7z"/></g><path d="M1.7 2.3h.2a.4.4 0 0 0 0-.5c0 .2-.1.3-.2.5z" class="E"/><path d="M2,1.7C.9,1.5,1.6.9,1.6.9s.7-.1.4.7Z" class="D"/><path d="M1.4 1.3l.6.4h0L1.6 1zm1.4.4h0v-.2c-.1.2-.3.4-.5.2l.2.2z" class="E"/></symbol><path id="C" d="M9.9 0c-.7-.1-.9.6-1 1h0c-.6-.8-2-.3-1.5.8-1.1 0-1.8 1.7 0 2.3a1.1 1.1 0 0 0 0 .8h.2a.9.9 0 0 0 1.3-.2h0a1.5 1.5 0 0 0 1.9.7h0a1.4 1.4 0 0 0 .7-1.8h-.1l-.3-.3c1.5 0 1.1-1.8-.3-1.3s.6-1.9-.9-2z"/><path id="D" d="M7.9 1.9c-.9 0-1.4 1.4 0 1.9a.4.4 0 0 0 0 .5h.2a.8.8 0 0 0 1.1-.2h0a1.1 1.1 0 0 0 1.6-.2h0a.8.8 0 0 0 .3-1.1H11c1.3 0 .9-1.4-.2-1.1S11.2.5 10 .4a.8.8 0 0 0-.7.5h0v.4h-.2c0-.1-.1-.2-.2-.3h0a.8.8 0 0 0-.9.1 2.2 2.2 0 0 0-.1.8z"/><path id="E" d="M8.3,12.7A1.1,1.1,0,0,0,10,11.2c-.8-1.6.7,0,.7-.7s-.6-.9-1-.7a1.2,1.2,0,0,0-.1-1.7H9.2a1.5,1.5,0,0,0-1.9.5L7,9.3c-.8-.9-1.7.2-1,.9h.2s-1.6.7-.8,1.8a1.2,1.2,0,0,0,1.4,0v.3h.1v.2a.8.8,0,0,0,.9.7h.1a.5.5,0,0,0,.5-.5Z"/><path id="F" d="M12.7 5.8c-.7-.1-.9.6-1 1h0c-.6-.9-2.1-.3-1.5.8-1.1 0-1.8 1.7 0 2.2a1.1 1.1 0 0 0 0 .8h.2a1.1 1.1 0 0 0 1.3-.2h0a1.4 1.4 0 0 0 2.2-1.8h0c1.5 0 1.1-1.7-.3-1.3s.6-1.4-.9-1.5z"/><path id="G" d="M10.7 7.7c-.9 0-1.5 1.4 0 1.8a.4.4 0 0 0 0 .5h.2c.4.3 1 .1 1-.2h0a1.2 1.2 0 0 0 1.7-.2h0a.9.9 0 0 0 .3-1.1h-.1c1.2 0 .8-1.5-.3-1.1s.5-1.3-.7-1.4-.6.1-.7.5h0V7H12l-.2-.2h0a.6.6 0 0 0-.9.1 1.9 1.9 0 0 0-.2.8z"/><path id="H" d="M21.7 6.8c-.7-.1-.9.6-1 1h0c-.6-.8-2.1-.3-1.5.8-1.1 0-1.8 1.7 0 2.3a1.1 1.1 0 0 0 0 .8h.2a.9.9 0 0 0 1.3-.2h0a1.5 1.5 0 0 0 2 .3 1.4 1.4 0 0 0 .2-2c1.5 0 1.1-1.8-.3-1.3s.6-1.6-.9-1.7z"/><path id="I" d="M19.7 8.7c-.9 0-1.5 1.4 0 1.9a.4.4 0 0 0 0 .5h.2c.4.3 1 .1 1-.2h0a1.2 1.2 0 0 0 1.7-.2h0a.8.8 0 0 0 .3-1.1h-.1c1.2 0 .8-1.4-.3-1.1s.5-1.4-.7-1.5a.8.8 0 0 0-.7.5h0v.6H21l-.2-.3h0a.7.7 0 0 0-.9.1 2.2 2.2 0 0 0-.2.8z"/><path id="J" d="M9.8 7.7c.8.7 2.4-.2 1.4-1.7a.6.6 0 0 0 .5-.6h-.1a.6.6 0 0 0-.6-.6h-.1l-.3.2a1.3 1.3 0 0 0-.5-2h-.4a1.4 1.4 0 0 0-1.7.8 1.7 1.7 0 0 1-.1.7c0 .2-1.7.5-.8 1h.3s-1.5.8-.5 1.8a.9.9 0 0 0 1.3-.1v.2h0v.2a1 1 0 0 0 .9.8.8.8 0 0 0 .8-.8z"/><path id="K" d="M14.8,11.4c-.7.8.4,2.3,1.7,1.3s.4.5.8.4h.1c.5-.2.7-.7.5-1a1.7,1.7,0,0,0,1.4-1.4,1.4,1.4,0,0,0-1.4-1.3h-.1c.7-1.1-.5-1.8-1-.8h-.2v.2s-.9-1.4-1.9-.4a1.1,1.1,0,0,0,.2,1.4h-.4a1,1,0,0,0-.7.8c.1.5.4.9.9.8Z"/><path id="L" d="M17.2 3.7c-.7 0-.8.7-.9 1.1h0c-.6-.9-2.1-.3-1.5.7-1.2.1-1.9 1.8 0 2.3a.6.6 0 0 0 0 .8h.2a1.1 1.1 0 0 0 1.3-.3h0a1.3 1.3 0 0 0 2 .3 1.4 1.4 0 0 0 .2-2h0c1.4 0 1-1.7-.3-1.3s.6-1.4-1-1.6z"/><path id="M" d="M15.3 5.6c-1 0-1.5 1.5 0 1.9-.2.1-.2.3-.1.5h.2c.5.4 1 .2 1.1-.1h0a1.2 1.2 0 0 0 1.7-.2h0a.8.8 0 0 0 .2-1.2h0c1.2-.1.8-1.5-.3-1.1s.5-1.3-.7-1.4a.6.6 0 0 0-.7.4h0l-.2.6h-.1c.1-.1 0-.1-.1-.2h0a.7.7 0 0 0-.9 0 1.2 1.2 0 0 0-.1.8z"/><path id="N" d="M16.7 6.7a.7.7 0 0 0 .1-1.4c-.6-.3-1.9 1.6-.1 1.4z"/><path id="O" d="M14 9.1c-.7 0-.9.7-1 1.1h0c-.6-.9-2.1-.3-1.5.7-1.1.1-1.8 1.8 0 2.3a.6.6 0 0 0 0 .8h.2a1.1 1.1 0 0 0 1.3-.3h0a1.4 1.4 0 0 0 2 .3 1.4 1.4 0 0 0 .2-2c1.5 0 1-1.7-.3-1.3s.6-1.4-.9-1.6z"/><path id="P" d="M12 11c-.9 0-1.5 1.5 0 1.9a.3.3 0 0 0 0 .5h.1c.5.4 1 .2 1.1-.1h0a1.2 1.2 0 0 0 1.7-.2h0a.8.8 0 0 0 .2-1.2h0c1.2-.1.8-1.5-.3-1.1s.5-1.3-.7-1.4a.6.6 0 0 0-.7.4h0v.6h-.1l-.2-.2h0a.7.7 0 0 0-.9 0 1.2 1.2 0 0 0-.2.8z"/><path id="Q" d="M5.9 4.2c-.8-.1-.9.6-1 1h0c-.6-.8-2.1-.3-1.5.8-1.1 0-1.8 1.7 0 2.3a.6.6 0 0 0 0 .8h.2a.9.9 0 0 0 1.3-.2h0a1.3 1.3 0 0 0 1.8.9A1.6 1.6 0 0 0 7.6 8l-.3-.4-.2-.3h0c1.4 0 1-1.8-.3-1.3s.6-1.7-.9-1.8z"/><path id="R" d="M3.9 6.1c-.9 0-1.5 1.4 0 1.9-.2.1-.2.3 0 .5H4a.7.7 0 0 0 1.1-.2h0a1.1 1.1 0 0 0 1.7-.2h0A.7.7 0 0 0 7 7h0c1.2 0 .8-1.4-.3-1.1s.5-1.4-.7-1.5a.8.8 0 0 0-.7.5h0v.6h-.2l-.2-.3h0a.7.7 0 0 0-.9.1 1.1 1.1 0 0 0-.1.8z"/><path id="S" d="M12.2,4.6c-.7.9.4,2.4,1.8,1.4s.4.5.7.3h.1c.6-.2.8-.8.5-1a1.5,1.5,0,0,0,1.4-1.5,1.3,1.3,0,0,0-1.4-1.2h-.1c.8-1.1-.5-1.8-1-.9V2h-.1v.2s-.9-1.5-1.8-.4a.8.8,0,0,0,.2,1.3H12a.8.8,0,0,0-.6.8h0a.9.9,0,0,0,.6.8Z"/><path id="T" d="M2.2 12.3a1.1 1.1 0 0 0 1.3.8h0a1.1 1.1 0 0 0 .8-.8 1 1 0 0 0 1-.2c.3-.6.1-1.1-.3-1.2a1.4 1.4 0 0 0 .9-1.8h-.1a1.4 1.4 0 0 0-1.7-.8H4c-.2.1-.5.2-.6.5-.1-1.3-1.5-1-1.5 0h.2S.5 8.4.4 9.7s.6.9 1 1h-.1l-.2.2a.8.8 0 0 0 0 1.1c.2.5.7.5 1.1.3z"/><path id="U" d="M19.2,6.8c.9.7,2.4-.2,1.4-1.7.4,0,.6-.3.6-.7h-.1a.8.8,0,0,0-.7-.7h-.1l-.2.2a1.4,1.4,0,0,0-.5-1.8h-.4a1.6,1.6,0,0,0-1.8.9v.7c-.1.2-1.8.5-.9,1h.3s-1.5.8-.5,1.8a1.2,1.2,0,0,0,1.4-.1v.2h0v.2a1.1,1.1,0,0,0,.8.8.8.8,0,0,0,.8-.8Z"/><path id="V" d="M20.5,8.6c-.7.9.4,2.3,1.8,1.3a.6.6,0,0,0,.7.4h.1c.6-.2.8-.7.6-1A1.5,1.5,0,0,0,25,7.9a1.3,1.3,0,0,0-1.3-1.3h-.1c.7-1-.6-1.7-1.1-.8V6h-.1v.2s-.9-1.4-1.8-.4a1.1,1.1,0,0,0,.2,1.4h-.4a.6.6,0,0,0-.6.8h0a.8.8,0,0,0,.7.7Z"/></defs><use width="3.5" height="3.49" transform="matrix(.974761 .22325 -.22325 .974761 13.7 16.7)" href="#B"/><use width="4.4" height="3.98" transform="matrix(.974761 .22325 -.22325 .974761 8.4 13.8)" href="#A"/><use width="3.5" height="3.49" transform="matrix(.974761 .22325 -.22325 .974761 14.1 14.1)" href="#B"/><use width="4.4" height="3.98" transform="matrix(.974761 .22325 -.22325 .974761 6.2 9.4)" href="#A"/><use width="3.5" height="3.49" transform="matrix(.974761 .22325 -.22325 .974761 17.1 13.1)" href="#B"/><use width="4.4" height="3.98" transform="matrix(.974761 .22325 -.22325 .974761 9.7 8.1)" href="#A"/><use width="4.4" height="3.98" transform="matrix(.974761 .22325 -.22325 .974761 9.6 9.7)" href="#A"/><use width="3.5" height="3.49" transform="matrix(.974761 .22325 -.22325 .974761 9.4 6.1)" href="#B"/><use width="4.4" height="3.98" transform="matrix(.974761 .22325 -.22325 .974761 16.4 9.2)" href="#A"/><use width="3.5" height="3.49" transform="matrix(.974761 .22325 -.22325 .974761 15.3 6.6)" href="#B"/><use width="4.4" height="3.98" transform="matrix(.974761 .22325 -.22325 .974761 5.8 10.1)" href="#A"/><use width="4.4" height="3.98" transform="matrix(.974761 .22325 -.22325 .974761 14.3 7.5)" href="#A"/><use width="3.5" height="3.49" transform="matrix(.974761 .22325 -.22325 .974761 13.1 14.9)" href="#B"/><use width="3.5" height="3.49" transform="matrix(.974761 .22325 -.22325 .974761 9.2 11.5)" href="#B"/><use width="4.4" height="3.98" transform="matrix(.974761 .22325 -.22325 .974761 13.6 9.8)" href="#A"/><use width="3.5" height="3.49" transform="matrix(.974761 .22325 -.22325 .974761 13.7 5.6)" href="#B"/><use width="3.5" height="3.49" transform="matrix(.974761 .22325 -.22325 .974761 10.7 4.2)" href="#B"/><use width="4.4" height="3.98" transform="matrix(.974761 .22325 -.22325 .974761 14.4 5.2)" href="#A"/><use width="3.5" height="3.49" transform="matrix(.974761 .22325 -.22325 .974761 13.7 8.1)" href="#B"/><use width="4.4" height="3.98" transform="matrix(.974761 .22325 -.22325 .974761 12.1 11)" href="#A"/><use width="3.5" height="3.49" transform="matrix(.974761 .22325 -.22325 .974761 14.6 5.6)" href="#B"/><use width="4.4" height="3.98" transform="matrix(.974761 .22325 -.22325 .974761 10 7.5)" href="#A"/><use width="3.5" height="3.49" transform="matrix(.974761 .22325 -.22325 .974761 16.7 8.2)" href="#B"/><use width="4.4" height="3.98" transform="matrix(.974761 .22325 -.22325 .974761 9.6 7.9)" href="#A"/><use width="3.5" height="3.49" transform="matrix(.974761 .22325 -.22325 .974761 13.2 9.7)" href="#B"/><use width="4.4" height="3.98" transform="matrix(.974761 .22325 -.22325 .974761 9.9 5.9)" href="#A"/><use width="3.5" height="3.49" transform="matrix(.974761 .22325 -.22325 .974761 14.1 8.5)" href="#B"/><use width="4.4" height="3.98" transform="matrix(.974761 .22325 -.22325 .974761 7.6 7.8)" href="#A"/><use width="3.5" height="3.49" transform="matrix(.974761 .22325 -.22325 .974761 12.8 8.1)" href="#B"/><use width="4.4" height="3.98" transform="matrix(.974761 .22325 -.22325 .974761 5.3 8.8)" href="#A"/><use width="3.5" height="3.49" transform="matrix(.974761 .22325 -.22325 .974761 12.2 13.7)" href="#B"/><use width="3.5" height="3.49" transform="matrix(.974761 .22325 -.22325 .974761 14.7 9)" href="#B"/><use width="4.4" height="3.98" transform="matrix(.974761 .22325 -.22325 .974761 9.3 11.9)" href="#A"/><use width="3.5" height="3.49" transform="matrix(.974761 .22325 -.22325 .974761 15.6 9.5)" href="#B"/><use width="4.4" height="3.98" transform="matrix(.974761 .22325 -.22325 .974761 5.9 5.6)" href="#A"/><use width="3.5" height="3.49" transform="matrix(.974761 .22325 -.22325 .974761 15 11.4)" href="#B"/><use width="4.4" height="3.98" transform="matrix(.974761 .22325 -.22325 .974761 9.1 3.1)" href="#A"/><use width="3.5" height="3.49" transform="matrix(.974761 .22325 -.22325 .974761 4.8 7.9)" href="#B"/><use width="4.4" height="3.98" transform="matrix(.974761 .22325 -.22325 .974761 9.4 6.7)" href="#A"/><use width="3.5" height="3.49" transform="matrix(.974761 .22325 -.22325 .974761 14 5.9)" href="#B"/><use width="4.4" height="3.98" transform="matrix(.974761 .22325 -.22325 .974761 3.2 9.7)" href="#A"/><use width="3.5" height="3.49" transform="matrix(.974761 .22325 -.22325 .974761 10.1 6.5)" href="#B"/><use width="4.4" height="3.98" transform="matrix(.974761 .22325 -.22325 .974761 6.2 7.6)" href="#A"/><use width="3.5" height="3.49" transform="matrix(.974761 .22325 -.22325 .974761 11.5 16.2)" href="#B"/><use width="3.5" height="3.49" transform="matrix(.974761 .22325 -.22325 .974761 12.5 14.9)" href="#B"/><use width="3.5" height="3.49" href="#B" x="11.1" y="8.1"/><use width="4.4" height="3.98" href="#A" x="15.5" y="5.6"/><use width="3.5" height="3.49" href="#B" x="9.3" y="6.8"/><use width="4.4" height="3.98" href="#A" x="13.6" y="5.9"/><use width="3.5" height="3.49" href="#B" x="5.4" y="5"/><use width="4.4" height="3.98" href="#A" x="8.4" y="1.4"/><use width="3.5" height="3.49" href="#B" x="9.1" y="7.1"/><use width="4.4" height="3.98" href="#A" x="13.1" y="2.2"/><use width="3.5" height="3.49" href="#B" x="10.3" y="6"/><use width="4.4" height="3.98" href="#A" x="10.5" y="3"/><use width="3.5" height="3.49" href="#B" x="15.6" y="4.8"/><use width="4.4" height="3.98" href="#A" x="5.2" y="5.4"/><use width="3.5" height="3.49" href="#B" x="13.1" y="3.8"/><use width="4.4" height="3.98" href="#A" x="6.5" y="5.9"/><use width="3.5" height="3.49" href="#B" x="11.5" y="5.4"/><use width="4.4" height="3.98" href="#A" x="14.1" y="3.4"/><use width="3.5" height="3.49" href="#B" x="7.4" y="3.1"/><use width="4.4" height="3.98" href="#A" x="6.7" y="4.9"/><use width="3.5" height="3.49" href="#B" x="12.4" y="3.7"/><use width="4.4" height="3.98" href="#A" x="6.5" y="6.2"/><use width="3.5" height="3.49" href="#B" x="7.5" y="5.4"/><use width="3.5" height="3.49" href="#B" x="16.7" y="5.5"/><use width="3.5" height="3.49" href="#B" x="6.2" y="6.3"/><use width="3.5" height="3.49" href="#B" x="8.9" y="3.3"/><use width="4.4" height="3.98" href="#A" x="10.4" y="6.8"/><use width="4.4" height="3.98" href="#A" x="15.5" y="3.9"/><use width="3.5" height="3.49" transform="matrix(.974761 .22325 -.22325 .974761 14.5 13.6)" href="#B"/><use width="3.5" height="3.49" transform="matrix(.974761 .22325 -.22325 .974761 15.7 14.9)" href="#B"/><use width="3.5" height="3.49" transform="matrix(.974761 .22325 -.22325 .974761 13 17.5)" href="#B"/><g class="B"><use href="#C"/><use href="#C"/><use href="#C"/></g><path d="M8.9 1h0 0 0 0z" class="C"/><use href="#D" class="B"/><use href="#D" class="G"/><g class="B"><path d="M8,2.9c.2.6.9.3,1-.1S7.6,1.6,8,2.9Z"/><path d="M9.3 3c1-.2.7-1.2.1-1.5S7.5 3.2 9.3 3zm.7.8c-.3.3-.1.6.2.7s.6-.9-.2-.7zm-1.9.3c0 .4.6.3.7.1s-.8-.9-.7-.1zm2.5-.5c.1.2.3 0 .3-.1s-.4-.3-.3.1zM9.9.8c-.3.5.2.8.6.7s0-1.5-.6-.7zm-3.8 9.3s-1.8.7-.8 2.1 1.1.3 1.6 0a1.1 1.1 0 0 0 .5 1.2h0a.8.8 0 0 0 1.1-.3h.1c.7 1 2.8.3 2-1.6.4-.1.8-.4.7-.8a.8.8 0 0 0-.5-.9h-.6a1.7 1.7 0 0 0-.6-2.2h-.1a1.7 1.7 0 0 0-2.2.4h0v.8c-1.2-1.1-2.5.5-1.2 1.3z"/><path d="M5.4 11.9c-.8-1.1.8-1.8.8-1.8h-.1s-1.8.7-.8 2.1 1 .3 1.5.1V12a1.2 1.2 0 0 1-1.4-.1z"/><use href="#E"/></g><use href="#E" class="C"/><use href="#E" class="F"/><path d="M9.2 12.6a.6.6 0 0 0 .4-1.1c-.3-.3-1.7 1-.4 1.1zm-.7-3.1c.8.2.7-.5.3-.9s-1.7.6-.3.9zm-.6 3.2c.1-.4-.3-.4-.5-.2s.4.9.5.2zm-1.4-.9c.8-.1.6-.9.1-1.2s-1.7 1.4-.1 1.2z" class="B"/><g class="D"><path d="M8.4,10.5c.4-1.4,1.3-.5,1.3-.5s.1,1.1-1.2.7Z"/><path d="M8.2 12s-.8-.5.3-1.2c.9 1-.3 1.2-.3 1.2z"/></g><path d="M8.3 11.8l.4-.2c-.1-.3-.1-.6-.4-.8a.9.9 0 0 1 0 1z" class="E"/><path d="M8.5,10.8c-2.1.3-1.3-1.1-1.3-1.1s1.1-.7,1.2.8h.1Z" class="D"/><path d="M7.3 10.5a2 2 0 0 0 1.1.1h0L7.3 10zm2.3-.4h-.3c0 .4-.1.8-.5.7h.4c.1-.4.4-.4.4-.7z" class="E"/><g class="B"><use href="#F"/><use href="#F"/><use href="#F"/></g><path d="M11.7 6.8h0 0 0 0z" class="C"/><use href="#G" class="B"/><use href="#G" class="G"/><g class="B"><path d="M10.8 8.6c.2.7.8.3.9-.1s-1.3-1.1-.9.1z"/><path d="M12.1 8.7a.702.702 0 0 0 .1-1.4c-.5-.2-1.9 1.6-.1 1.4zm.7.9c-.3.2-.1.6.2.7s.6-.9-.2-.7zm-1.9.3c0 .4.6.3.7 0s-.8-.9-.7 0zm2.5-.6c.1.2.3.1.3 0s-.4-.3-.3 0zm-.7-2.7c-.3.4.2.8.6.6s0-1.4-.6-.6z"/><use href="#H"/><use href="#H"/><use href="#H"/></g><path d="M20.7 7.8h0 0 0 0z" class="C"/><use href="#I" class="B"/><use href="#I" class="G"/><g class="B"><path d="M19.8 9.7c.1.6.8.3.9-.1s-1.3-1.2-.9.1z"/><path d="M21.1 9.8c1-.2.7-1.2.1-1.5s-1.9 1.7-.1 1.5zm.7.8c-.3.3-.1.6.2.7s.6-.9-.2-.7zm-1.9.3c0 .4.6.3.7.1s-.8-.9-.7-.1zm2.5-.5c.1.2.3 0 .3-.1s-.4-.3-.3.1zm-.7-2.8c-.3.5.2.8.6.7s0-1.5-.6-.7zM7.2 5.5s-1.7 1.1-.5 2.3 1.2.2 1.5-.2A1.6 1.6 0 0 0 8.7 9a1.2 1.2 0 0 0 1.4-.4c0-.2.1-.4 0-.6s2.7-.2 1.7-1.9c.4-.2.7-.6.5-1h0a.8.8 0 0 0-.8-.8h-.3a1.6 1.6 0 0 0-1.3-1.8A1.6 1.6 0 0 0 8 3.7v.6c-.1.2-2.2.7-.8 1.2z"/><path d="M6.8,7.5c-1-1,.6-1.8.6-1.8H7.2s-1.7,1-.5,2.2,1.2.2,1.5-.2V7.4a1.1,1.1,0,0,1-1.4.1Z"/><use href="#J"/></g><use href="#J" class="C"/><use href="#J" class="F"/><path d="M10.6 7.5a.6.6 0 0 0 .2-1.1c-.5-.2-1.5 1.2-.2 1.1zM9.5 4.6c.8 0 .5-.7.1-.9s-1.6.9-.1.9zm-.1 3.2c0-.4-.4-.3-.5-.1s.5.8.5.1zm-1.6-.6c.8-.2.5-1-.1-1.1s-1.3 1.6.1 1.1z" class="B"/><path d="M9.5 5.7c.2-1.6 1.1-.8 1.1-.8s.4 1-1.1.8zm.1 1.4s-1-.3 0-1.3c1.1.9 0 1.3 0 1.3z" class="D"/><path d="M9.7 6.8h.3L9.6 6a2.8 2.8 0 0 1 .1.8z" class="E"/><path d="M9.6,5.8C7.7,6.6,8.1,5,8.1,5s1-.9,1.4.7h.1Z" class="D"/><path d="M8.4 5.8h1.1l-1.2-.6c.1.2 0 .4.1.6zm2.2-.8h-.3c.1.5-.1.8-.4.9h.3a.8.8 0 0 0 .5-.8z" class="E"/><g class="B"><path d="M16.7 8.7s-1.1-1.7-2.2-.5a1.3 1.3 0 0 0 .2 1.6 1 1 0 0 0-1.2.5h0a1.1 1.1 0 0 0 .2 1.2l.8.2a1.2 1.2 0 0 0 .6 1.6h.2a1.1 1.1 0 0 0 1.2-.1 1.1 1.1 0 0 0 1 .6h0a1.1 1.1 0 0 0 .8-1.1h0l-.2-.2a1.8 1.8 0 0 0 1.7-1.4v-.2a1.5 1.5 0 0 0-1.5-1.5h-.1c.8-1.4-1-2.2-1.5-.7z"/><path d="M14.7,8.4c1-1,1.9.4,1.9.4V8.6s-1-1.6-2.1-.4a1.3,1.3,0,0,0,.2,1.6h.2a1.1,1.1,0,0,1-.2-1.4Z"/><use href="#K"/></g><use href="#K" class="C"/><use href="#K" class="F"/><path d="M15 12.3c.1.7.9.5 1.1 0s-1.3-1.4-1.1 0zm2.8-1.5c0 .9.8.5 1 .1s-1-1.5-1-.1zm-3.2.2c.3 0 .3-.2.3-.4h-.1c-.3-.2-.9.5-.2.4zm.4-1.6a.7.7 0 0 0 1.3-.1c.1-.5-1.8-1.4-1.3.1z" class="B"/><g class="D"><path d="M16.8,11c1.5.1.8,1,.8,1s-1,.5-.9-1Z"/><path d="M15.4 11.1s.2-.9 1.2 0c-.8 1.1-1.2 0-1.2 0z"/></g><path d="M15.6,11.3l.3.2a1.5,1.5,0,0,0,.6-.5Z" class="E"/><path d="M16.6,11.1c-.8-1.8.6-1.5.6-1.5s1.1.8-.4,1.4h-.2Z" class="D"/><path d="M16.6 9.8a2.5 2.5 0 0 0 .1 1.2h.1c.1-.5.3-.8.4-1.2zm1 2.2h0v-.3c-.5.1-.9.1-.9-.4s.1.3 0 .5z" class="E"/><g class="B"><use href="#L"/><use href="#L"/><use href="#L"/></g><path d="M16.3 4.8h0 0 0 0z" class="C"/><use href="#M" class="B"/><use href="#M" class="G"/><g class="B"><path d="M15.4 6.6c.1.6.8.3.9-.1s-1.4-1.1-.9.1z"/><use href="#N"/><path d="M17.4 7.6c-.4.2-.1.6.2.6s.6-.9-.2-.6zm-1.9.2c0 .5.5.4.7.1s-.8-.9-.7-.1zm2.5-.5c0 .2.3.1.3 0s-.5-.3-.3 0zm-.7-2.7c-.3.4.2.7.5.6s.1-1.4-.5-.6z"/><use href="#O"/><use href="#O"/><use href="#O"/></g><path d="M13 10.2h0 0 0 0z" class="C"/><use href="#P" class="B"/><use href="#P" class="G"/><g class="B"><path d="M12.1 12c.1.6.8.3.9-.1s-1.4-1.1-.9.1z"/><use href="#N" x="-3.3" y="5.4"/><path d="M14.1 13c-.4.2-.1.6.2.6s.6-.9-.2-.6zm-1.9.3c0 .4.5.3.7 0s-.8-.9-.7 0zm2.5-.6c0 .2.3.1.3 0s-.4-.3-.3 0zM14 10c-.3.4.2.7.5.6s.1-1.4-.5-.6z"/><use href="#Q"/><use href="#Q"/><use href="#Q"/></g><path d="M4.9 5.2h0 0 0 0z" class="C"/><use href="#R" class="B"/><use href="#R" class="G"/><g class="B"><path d="M4,7.1c.1.6.8.3.9-.1S3.5,5.8,4,7.1Z"/><path d="M5.3 7.2c.9-.2.7-1.2.1-1.5s-1.9 1.7-.1 1.5zM6 8c-.4.3-.1.6.2.7s.6-.9-.2-.7zm-1.9.3c0 .4.5.3.7.1s-.8-.9-.7-.1zm2.5-.5c0 .2.3 0 .3-.1s-.4-.3-.3.1zM5.9 5a.5.5 0 0 0 .5.7c.4-.2.1-1.5-.5-.7zm8.3-3S13 .3 11.9 1.5a1.2 1.2 0 0 0 .3 1.6 1.1 1.1 0 0 0-1.3.4h0a1.1 1.1 0 0 0 .3 1.3l.7.2a1.4 1.4 0 0 0 .7 1.6h.1a1.5 1.5 0 0 0 1.3-.1.8.8 0 0 0 1 .5h0a.9.9 0 0 0 .7-1h0c-.1-.2 0-.3-.1-.3a1.5 1.5 0 0 0 1.6-1.4c0-.1-.1-.1 0-.2a1.5 1.5 0 0 0-1.6-1.4h-.1c1-1.4-.9-2.2-1.3-.7z"/><path d="M12.2 1.7c.9-1.1 1.8.4 1.8.4v-.2s-1-1.6-2.1-.4a1.2 1.2 0 0 0 .3 1.6h.2a.8.8 0 0 1-.2-1.3z"/></g><path d="M14.2,1.8h0Z" class="C"/><use href="#S" class="B"/><use href="#S" class="C"/><use href="#S" class="F"/><path d="M12.4 5.5c.2.8.9.5 1.1.1s-1.3-1.5-1.1-.1zm2.8-1.4c0 .8.8.5 1 0s-1-1.4-1 0zm-3.1.2c.2-.1.3-.2.2-.5h-.1c-.3-.1-.8.5-.1.5zm.4-1.7c.3.8 1.1.4 1.2-.1s-1.7-1.3-1.2.1z" class="B"/><path d="M14.2 4.3c1.6 0 .8 1 .8 1s-1 .5-.8-1zm-1.4.1s.2-.9 1.2-.1c-.7 1.2-1.2.1-1.2.1z" class="D"/><path d="M13.1,4.5l.2.3a1.3,1.3,0,0,0,.7-.6Z" class="E"/><path d="M14,4.3c-.8-1.8.7-1.5.7-1.5s1,.9-.5,1.5H14Z" class="D"/><path d="M14 3.1a2.5 2.5 0 0 0 .2 1.2h0a9.3 9.3 0 0 0 .4-1.3zm1 2.2h0V5c-.4.1-.8 0-.8-.4V5a1.1 1.1 0 0 0 .8.3z" class="E"/><g class="B"><path d="M2 9s-1.9-.7-2 1a1.2 1.2 0 0 0 1.2 1h0a1 1 0 0 0-.7 1.1h.1a.9.9 0 0 0 1.1.8l.5-.3c.1-.1 2 1.9 2.5 0a.8.8 0 0 0 1.1-.2.8.8 0 0 0-.3-1.4A1.5 1.5 0 0 0 6 8.8h-.2a1.8 1.8 0 0 0-2.3-.2h0c0-1.6-2-1.1-1.5.4z"/><path d="M.3 9.9c.1-1.3 1.8-.8 1.8-.8H2c-.1-.1-2-.6-2 .9a1 1 0 0 0 1 1.1h.3c-.3-.3-1-.5-1-1.2z"/><use href="#T"/></g><use href="#T" class="C"/><use href="#T" class="F"/><path d="M2.9 12.8c.6.5 1-.1.9-.6s-1.9-.4-.9.6zM4.2 10c.5.6.9-.1.8-.7s-1.7-.4-.8.7zm-2.4 2.1c.3-.2 0-.5-.2-.5s-.3.9.2.5zm-.7-1.6c.8.5 1.1-.4.9-.8s-2.1 0-.9.8z" class="B"/><path d="M3.5 10.8c1.3-1 1.3.2 1.3.2s-.5 1.1-1.3-.2zm-1 .9s-.4-.9.9-.9c.1 1.5-.9.9-.9.9z" class="D"/><path d="M2.7 11.6h.4a3.1 3.1 0 0 0 .2-.8.7.7 0 0 1-.6.8z" class="E"/><path d="M3.4,10.8C1.7,9.9,3,9.3,3,9.3s1.4,0,.5,1.5H3.4Z" class="D"/><path d="M2.6 9.9a2 2 0 0 0 .8.8h.1l-.4-1.2zM4.8 11h0c0-.2.1-.2 0-.3s-.7.5-.9.2l.2.3a.7.7 0 0 0 .7-.2z" class="E"/><g class="B"><path d="M16.6 4.6s-1.6 1.1-.5 2.3 1.2.1 1.6-.2a1.1 1.1 0 0 0 .4 1.3 1 1 0 0 0 1.4-.4c.1-.1.1-.4.1-.6s2.7-.2 1.6-1.8c.5-.2.8-.6.6-1h0a.9.9 0 0 0-.9-.8h-.3a1.6 1.6 0 0 0-3.1-.6h0c-.1.2 0 .4-.1.6s-2.2.7-.8 1.2z"/><path d="M16.3,6.6c-1-1.1.5-1.8.5-1.8h-.2s-1.6,1-.5,2.2,1.2.1,1.6-.2V6.5a.9.9,0,0,1-1.3.1Z"/><use href="#U"/></g><use href="#U" class="C"/><use href="#U" class="F"/><path d="M20.1 6.5c.7 0 .6-.8.1-1s-1.5 1.1-.1 1zm-1.2-2.8c.8 0 .6-.7.1-.9s-1.5.9-.1.9zm0 3.2c0-.4-.5-.3-.6-.1s.5.8.6.1zm-1.6-.6c.7-.2.4-1-.2-1.2s-1.3 1.7.2 1.2z" class="B"/><path d="M19 4.7c.1-1.6 1.1-.7 1.1-.7s.3 1-1.1.7zm0 1.5s-.9-.3 0-1.3c1.2.8 0 1.3 0 1.3z" class="D"/><path d="M19.1 5.9h.3L19 5a1.4 1.4 0 0 1 .1.9z" class="E"/><path d="M19,4.9c-1.9.8-1.4-.8-1.4-.8s.9-.9,1.4.6h0Z" class="D"/><path d="M17.8 4.9l1.2-.2h0l-1.3-.4c.1.2 0 .4.1.6zm2.2-.8h-.3c.2.4 0 .8-.3.8h.2a.7.7 0 0 0 .5-.8z" class="E"/><g class="B"><path d="M22.5 6s-1.2-1.7-2.3-.5a1.4 1.4 0 0 0 .3 1.5 1.1 1.1 0 0 0-1.2.5h0a1 1 0 0 0 .2 1.3h.8a1.1 1.1 0 0 0 .6 1.6h.1a1.5 1.5 0 0 0 1.3-.2.9.9 0 0 0 1 .6h0a.9.9 0 0 0 .7-1h0c0-.1 0-.2-.1-.2a1.6 1.6 0 0 0 1.6-1.4c.1-.1 0-.1 0-.2A1.5 1.5 0 0 0 24 6.6h-.1c.9-1.3-1-2.2-1.4-.6z"/><path d="M20.5,5.6c1-1,1.9.4,1.9.4V5.8s-1.1-1.5-2.2-.3A1.4,1.4,0,0,0,20.5,7h.2a1.1,1.1,0,0,1-.2-1.4Z"/></g><path d="M22.5,5.8c0,.1,0,.1-.1,0h.1Z" class="C"/><use href="#V" class="B"/><use href="#V" class="C"/><use href="#V" class="F"/><path d="M20.8 9.5c.1.7.9.5 1.1 0s-1.3-1.4-1.1 0zm2.7-1.4c.1.8.9.4 1.1 0s-1-1.5-1.1 0zm-3.1.2a.4.4 0 0 0 .2-.5h-.1c-.2-.2-.8.5-.1.5zm.4-1.7c.3.8 1.1.4 1.3-.1s-1.8-1.3-1.3.1z" class="B"/><g class="D"><path d="M22.6,8.2c1.5.1.8,1,.8,1s-1.1.5-.9-1Z"/><path d="M21.1 8.3s.2-.9 1.3 0c-.8 1.2-1.3 0-1.3 0z"/></g><path d="M21.4,8.5l.2.2a1.8,1.8,0,0,0,.7-.5Z" class="E"/><path d="M22.4,8.3c-.9-1.8.6-1.5.6-1.5s1,.9-.4,1.4h-.2Z" class="D"/><path d="M22.3 7.1a4.3 4.3 0 0 0 .2 1.1h.1c.1-.4.3-.8.4-1.2zm1.1 2.1h0V9c-.4.1-.8 0-.8-.4s.1.2 0 .4z" class="E"/><path d="M14.4 26.9a10.2 10.2 0 0 1-3.4.6h-.3a15.9 15.9 0 0 1-3.3-.9 6.2 6.2 0 0 1-3-3c-.1-.5-.1-1-.2-1.4a4.3 4.3 0 0 1 1.9-3.1 8.9 8.9 0 0 1 3.9-1.2h1.2a8.1 8.1 0 0 1 3.1.6c2.1 1 3.5 2.7 3.4 4.5a4.8 4.8 0 0 1-3.3 3.9z" fill="#fff"/><path d="M23.6 8.9c.6-.3.8.8.8.8L22 28.1h.1l-1.2 1.2 1.7-18.4s.3-1.8 1-2zm-2.8 3l-1.3 18.9-1.4 1.5.3-9.1.4-10.1s.1-1.8.9-2.1 1.1.9 1.1.9z" fill="#ce2027"/><path d="M22 28.1l2.4-18.4s.1-1.5.8-1.9.8.9.8.9L23.1 27l-1 1.1zm.6-17.2l-1.7 18.4-1.4 1.5 1.3-18.9s.1-1.7.9-1.9.9.9.9.9z" fill="#c8b9ab"/><path d="M16.5 11.5a3.5 3.5 0 0 0-2.4 1.5v5.6c2.2 1 3.5 2.7 3.4 4.5a4.5 4.5 0 0 1-3.2 3.8l.2 5.1 3.5.3.3-9.1.4-10.1a2.4 2.4 0 0 0-2.2-1.6zm-5.5 16h-.3a15.9 15.9 0 0 1-3.3-.9l.8 4.7 3.2.3zM9.5 12.7a2.8 2.8 0 0 0-2.2-1.6 2.3 2.3 0 0 0-2.4 1.4l1.2 6.7A8.9 8.9 0 0 1 10 18z" fill="#f2e6da"/><path d="M14.4 26.9l.2 5.1-3.3-.3-.3-4.2h0a10.2 10.2 0 0 0 3.4-.6zM14.1 13v5.6a7.3 7.3 0 0 0-3-.6H10l-.5-5.3a2.9 2.9 0 0 1 2.4-1.4 2.3 2.3 0 0 1 2.2 1.7zM7.4 26.7a5.9 5.9 0 0 1-3-3c-.1-.5-.1-1-.2-1.4a4 4 0 0 1 1.9-3.1l-1.2-6.7A2.5 2.5 0 0 0 2.7 11a2.1 2.1 0 0 0-2.1 1.5l2.9 11.4L5.4 31l2.7.4z" fill="#ef3a37"/><g fill="#ce2027"><path d="M6.5 21.3h0c-1-.4-.6 1.1-.6 1.4s0 1.2.1 1.3.4-.9.4-1 1.2-1.3.1-1.7zm-.1 1.1v-.7a.9.9 0 0 1 0 .7zm.7-.9v1.6c.2.9.9 1.6 1.3.4a2.5 2.5 0 0 0-.2-1.9c-.2-.5-1-.6-1.1-.1zm.7 2.3c-.6 0-.2-2.1-.2-2.4s.8 2.4.2 2.4zm1.3-2.5c-.9-.4-.4 1.1-.4 1.4s-.2 1.2.1 1.4.3-1 .2-1.1.2-.1.3-.4a.7.7 0 0 0 .3-1h-.5zm0 1.1c-.1-.2 0-.5-.1-.7s.2.1.2.3 0 .2-.1.4z"/><path d="M11 23.7c-.9.1-.9-.6-.8-1.4s-.2-.5.1-.7.5.1.6 0-.8-.5-1-.1a2.5 2.5 0 0 0 0 1.7c.1.4.1 1 .8 1s.8-.3.3-.5zm.6-2.4c-.4.3-.3 1.2-.3 1.5a2 2 0 0 0 .6 1.4c.3 0 .7-.1.7-.4v-1.9c-.1-.4-.6-1-1-.6zm.7 2.4c-.2.6-.6-1-.6-1.2a3.6 3.6 0 0 1 .2-1.1 3.7 3.7 0 0 1 .4 2.3z"/><path d="M12.6 21.9c0 .4-.1-.3 0 0zm1.2.2c0-.3-.5-1.3-.9-.8s.1 1.1 0 1.3-.1 1.4.2 1.5.2-1 .3-1.1.1.9.4 1.1.3.1.3-.2a3 3 0 0 0-.4-.8c0-.3.1-.7.1-1zm-.5.1v-.6c.1.1.2.4 0 .5zm2.2-1h0c-.4 0-.2 1.7-.1 2s-.6-2.2-1.1-1.9 0 1.2-.1 1.4 0 1.3.2 1.4.2-.9.2-.9v-1a4.7 4.7 0 0 0 .7 1.9c.4.3.4-.7.4-.9s.1-2-.2-2z"/></g><path d="M4.9 12.5l-.9-1a1.2 1.2 0 0 0-1.2-.5 3.3 3.3 0 0 0-1.4.4 4.4 4.4 0 0 0-.8 1.1 2 2 0 0 1 2.1-1.6 1.6 1.6 0 0 1 1.4.5 1.8 1.8 0 0 1 .8 1.1z" fill="#f6988d"/><path d="M9.5 12.7a1.6 1.6 0 0 0-1-1 1.5 1.5 0 0 0-1.3-.5l-1.3.3-1 1a4.8 4.8 0 0 1 .9-1.1 2.8 2.8 0 0 1 1.5-.4 2 2 0 0 1 1.4.6 2.1 2.1 0 0 1 .8 1.1z" fill="#fff"/><path d="M14.1 13a1.8 1.8 0 0 0-.9-1.2 1.8 1.8 0 0 0-1.3-.4 1.6 1.6 0 0 0-1.3.4l-1.1.9 1-1.1a2.3 2.3 0 0 1 1.4-.4 2 2 0 0 1 1.5.6 1.4 1.4 0 0 1 .7 1.2z" fill="#f6988d"/><path d="M18.8 13.1a3.1 3.1 0 0 0-.9-1.1 1.5 1.5 0 0 0-1.3-.4 1.4 1.4 0 0 0-1.4.4 5.2 5.2 0 0 0-1.1 1 5.2 5.2 0 0 1 1-1.1 2.4 2.4 0 0 1 1.4-.5 1.5 1.5 0 0 1 1.4.5 1.8 1.8 0 0 1 .9 1.2z" fill="#fff"/><path d="M20.8 11.9a1 1 0 0 0-.5-.8c-.3-.3-.6-.1-.9.1s-.2.7-.4.9l-.2 1a3.4 3.4 0 0 1 .1-1 9.3 9.3 0 0 0 .5-1l.4-.3h.5a1.6 1.6 0 0 1 .5 1.1z" fill="#e8432c"/><path d="M22.6 10.9l-.5-.7c-.2-.3-.5-.1-.7 0s-.2.6-.4.9l-.2.8c.1-.3 0-.6.1-.9l.4-.8.4-.3h.6a1.4 1.4 0 0 1 .3 1z" fill="#f0dcc9"/><path d="M24.4 9.7l-.2-.4a.3.3 0 0 0-.3-.3c-.2-.2-.5 0-.6.2a3.6 3.6 0 0 0-.4.9 1.1 1.1 0 0 0-.3.8c-.1.3 0-.6.1-.9a1.8 1.8 0 0 1 .4-.9l.4-.3h.6a1.1 1.1 0 0 1 .3.9z" fill="#e8432c"/><path d="M26 8.7l-.2-.4-.2-.3a.5.5 0 0 0-.6.2c-.2.1-.3.4-.4.7l-.2.8a1.9 1.9 0 0 1 .1-.8 2 2 0 0 1 .4-.8.3.3 0 0 1 .3-.3h.5z" fill="#f0dcc9"/><path d="M14.2,18.6a5.8,5.8,0,0,1,2,1.3,3,3,0,0,1,1.3,2,2.2,2.2,0,0,1,0,2.2A5,5,0,0,1,16.2,26a6.1,6.1,0,0,1-4.3,1.5,5.9,5.9,0,0,1-2.3-.1l-2.2-.7a8.4,8.4,0,0,0,4.4.7,7.6,7.6,0,0,0,4.3-1.6,6.6,6.6,0,0,0,1.2-1.7,3,3,0,0,0,.1-2.3A3.6,3.6,0,0,0,16.2,20Z" fill="#baa794"/></svg>